<svg width="21" height="21" viewBox="0 0 21 21" fill="none" xmlns="http://www.w3.org/2000/svg">
<path d="M10.1 20.3C15.6752 20.3 20.1 15.7867 20.1 10.3C20.1 4.72478 15.5867 0.300003 10.1 0.300003C4.52478 0.300003 0.100006 4.81328 0.100006 10.3C0.100006 15.7867 4.61328 20.3 10.1 20.3Z" fill="#2C374B"/>
<path fill-rule="evenodd" clip-rule="evenodd" d="M15.5867 6.67168C15.4982 6.58318 11.1619 4.01681 10.631 3.83982C10.454 3.75132 10.0115 3.66283 9.74601 3.75132C9.48052 3.83982 4.87875 6.49469 4.70176 6.67168C4.61327 6.76017 4.52477 6.93716 4.43627 7.02566C4.34778 7.20265 4.34778 7.29115 4.34778 10.3885V13.5743L4.96725 13.9283C5.32123 14.1053 5.58672 14.2823 5.58672 14.2823C5.67521 14.2823 9.8345 7.64513 9.8345 7.55663C9.8345 7.46814 8.86105 7.46814 8.59557 7.55663C8.24158 7.64513 7.9761 7.82212 7.79911 7.99911C7.71061 8.08761 7.17964 8.97256 6.47167 9.94602C5.8522 10.9195 5.32123 11.8044 5.32123 11.8044C5.32123 11.8044 5.32123 10.9195 5.32123 9.68053V7.46814L5.40973 7.37964C5.58672 7.20265 10.1 4.63628 10.277 4.63628C10.3655 4.63628 10.454 4.63628 11.5159 5.25575C11.8699 5.43274 12.8434 5.96371 13.6398 6.49469C14.4363 6.93717 15.1442 7.37964 15.2327 7.46814L15.3212 7.55663V12.1584L13.1088 8.70708C13.0203 8.53009 12.9318 8.3531 12.8434 8.2646C12.8434 8.2646 12.7549 8.44159 12.2239 9.32655C12.1354 9.41504 12.0469 9.59203 12.0469 9.68053L11.9584 9.85752L12.0469 9.94602L12.1354 10.0345C12.1354 10.0345 12.1354 10.123 12.2239 10.123L12.4009 10.3885C12.4009 10.3885 12.4009 10.477 12.4894 10.477C12.5779 10.5655 12.6664 10.7425 12.6664 10.831C12.6664 10.831 12.6664 10.831 12.6664 10.9195L14.5248 13.9283L14.3478 14.0168C14.2593 14.1053 14.1708 14.1053 14.0823 14.1053L11.7814 10.5655L11.6929 10.477L11.5159 10.831L10.631 12.2469L12.4009 15.0788C12.1354 15.2557 10.631 16.3177 10.5425 16.3177C10.454 16.3177 8.41858 14.9903 8.50707 14.9018C8.50707 14.9018 9.12654 13.8398 9.8345 12.6009C10.454 11.5389 11.2504 10.2115 11.7814 9.32655C12.4009 8.2646 12.6664 7.73363 12.6664 7.73363C12.6664 7.73363 12.2239 7.73363 11.6929 7.73363H10.808L8.77256 11.0965C8.06459 12.3354 7.35663 13.4858 7.00265 14.1053C6.38318 14.1938 6.20619 14.3708 6.20619 14.3708L6.11769 14.5478L7.71061 15.4327C8.59557 15.9637 9.39203 16.4062 9.56902 16.4947C9.8345 16.6717 10.277 16.6717 10.454 16.6717C10.631 16.5832 15.2327 13.9283 15.4982 13.7513C15.5867 13.6628 15.6752 13.5743 15.7637 13.3973L15.8522 13.1319V10.2115V7.29115L15.7637 7.11416C15.7637 6.93717 15.5867 6.76017 15.5867 6.67168Z" fill="white"/>
<path d="M15.1442 12.0699L12.4894 7.99911L11.5159 9.59204L14.0823 13.7513L15.2327 13.2204L15.1442 12.0699Z" fill="#24A2EE"/>
<path d="M13.9053 14.2823L11.2504 10.2115L10.1 11.9814L12.2239 15.3442L13.5513 14.8133L13.9053 14.2823Z" fill="#24A2EE"/>
<path fill-rule="evenodd" clip-rule="evenodd" d="M5.23274 7.46814L10.1 4.63629L14.9673 7.46814V13.1319L10.1 15.9637L6.47168 13.9283L6.0292 14.7248L10.0115 17.0257C10.1 17.1142 10.1885 17.1142 10.277 17.0257L15.8522 13.8398C15.9407 13.7513 16.0292 13.6628 16.0292 13.5743V7.20266C16.0292 7.11416 15.9407 7.02567 15.8522 6.93717L10.277 3.75133C10.1885 3.66284 10.1 3.66284 10.0115 3.75133L4.43628 6.84868C4.34779 6.93717 4.25929 7.02567 4.25929 7.11416V13.4858C4.25929 13.5743 4.34779 13.6628 4.43628 13.7513L5.58673 14.3708L6.1177 13.5743L5.32124 13.1319V7.46814H5.23274Z" fill="#98BCDC"/>
<path d="M12.2239 7.46815H10.3655L6.02921 14.5478L7.53363 15.4327L12.2239 7.46815Z" fill="white"/>
<path d="M7.53363 8.17611C7.97611 7.46815 9.21504 7.46815 9.74602 7.55664L5.49823 14.3708C5.32124 14.2823 4.96726 14.1053 4.70177 13.9283C4.34779 13.7513 4.25929 13.7513 4.25929 13.4858V13.1319C5.23274 11.7159 7.09115 8.88408 7.53363 8.17611Z" fill="white"/>
</svg>
