<svg width="160" height="238" viewBox="0 0 160 238" fill="none" xmlns="http://www.w3.org/2000/svg">
<path d="M5.5 192.5C5.5 194.5 8 197 10.5 197.5C53.8333 197 141 196 143 196C145 196 146.5 193.333 147 192C140 140.667 125.9 37.1 125.5 33.5C125.1 29.9 122.667 29 121.5 29H28C24.8 29 23.6667 32.3333 23.5 34C16.6667 86.3333 5.5 190.5 5.5 192.5Z" stroke="#553CDF"/>
<path d="M4.5 181.5H145" stroke="#553CDF"/>
<path d="M22 44H127" stroke="#553CDF"/>
<path d="M53 29V8L58 1H90.5L96 8V29" stroke="#553CDF"/>
<path d="M59 127H91" stroke="#553CDF"/>
<circle cx="63" cy="104" r="5" fill="#553CDF"/>
<circle cx="86" cy="104" r="5" fill="#553CDF"/>
<path d="M12.3583 210.636H14.6222L18.5582 220.247H18.7031L22.6392 210.636H24.9031V223H23.1282V214.053H23.0135L19.3672 222.982H17.8942L14.2479 214.047H14.1332V223H12.3583V210.636ZM30.1688 223.205C29.5812 223.205 29.0499 223.097 28.575 222.879C28.1001 222.658 27.7238 222.338 27.4461 221.919C27.1724 221.501 27.0356 220.988 27.0356 220.38C27.0356 219.857 27.1362 219.426 27.3374 219.088C27.5387 218.75 27.8103 218.482 28.1524 218.285C28.4945 218.088 28.8769 217.939 29.2994 217.838C29.722 217.738 30.1527 217.661 30.5914 217.609C31.1468 217.545 31.5975 217.492 31.9436 217.452C32.2897 217.408 32.5413 217.337 32.6982 217.241C32.8552 217.144 32.9337 216.987 32.9337 216.77V216.728C32.9337 216.2 32.7848 215.792 32.4869 215.502C32.1932 215.212 31.7545 215.067 31.1709 215.067C30.5632 215.067 30.0843 215.202 29.7341 215.472C29.388 215.738 29.1485 216.033 29.0157 216.359L27.3193 215.973C27.5206 215.41 27.8144 214.955 28.2007 214.609C28.5911 214.259 29.0399 214.005 29.547 213.848C30.0541 213.687 30.5873 213.607 31.1468 213.607C31.517 213.607 31.9094 213.651 32.324 213.739C32.7425 213.824 33.1329 213.981 33.4951 214.21C33.8614 214.44 34.1612 214.768 34.3946 215.194C34.628 215.617 34.7448 216.166 34.7448 216.842V223H32.982V221.732H32.9095C32.7928 221.966 32.6177 222.195 32.3843 222.42C32.1509 222.646 31.8511 222.833 31.4848 222.982C31.1186 223.131 30.6799 223.205 30.1688 223.205ZM30.5612 221.756C31.0602 221.756 31.4868 221.658 31.841 221.461C32.1992 221.263 32.4709 221.006 32.656 220.688C32.8451 220.366 32.9397 220.022 32.9397 219.656V218.46C32.8753 218.525 32.7506 218.585 32.5654 218.641C32.3843 218.694 32.1771 218.74 31.9436 218.78C31.7102 218.816 31.4828 218.851 31.2615 218.883C31.0401 218.911 30.855 218.935 30.7061 218.955C30.3559 219 30.036 219.074 29.7462 219.179C29.4604 219.283 29.231 219.434 29.058 219.631C28.8889 219.825 28.8044 220.082 28.8044 220.404C28.8044 220.851 28.9694 221.189 29.2994 221.418C29.6295 221.644 30.05 221.756 30.5612 221.756ZM37.149 223V213.727H38.8936V215.2H38.9902C39.1593 214.701 39.4571 214.309 39.8837 214.023C40.3143 213.733 40.8013 213.588 41.3446 213.588C41.4573 213.588 41.5901 213.592 41.7431 213.6C41.9 213.609 42.0228 213.619 42.1113 213.631V215.357C42.0389 215.337 41.9101 215.315 41.725 215.291C41.5398 215.263 41.3547 215.249 41.1696 215.249C40.743 215.249 40.3626 215.339 40.0286 215.52C39.6986 215.697 39.437 215.945 39.2438 216.263C39.0506 216.577 38.954 216.935 38.954 217.337V223H37.149ZM45.3335 219.855L45.3215 217.651H45.6354L49.33 213.727H51.4912L47.2774 218.195H46.9937L45.3335 219.855ZM43.6734 223V210.636H45.4784V223H43.6734ZM49.5292 223L46.2089 218.593L47.4525 217.331L51.7448 223H49.5292ZM56.7509 223.187C55.8373 223.187 55.0505 222.992 54.3904 222.602C53.7344 222.207 53.2273 221.654 52.8691 220.941C52.515 220.225 52.3379 219.386 52.3379 218.424C52.3379 217.474 52.515 216.637 52.8691 215.913C53.2273 215.188 53.7264 214.623 54.3663 214.216C55.0102 213.81 55.7628 213.607 56.6241 213.607C57.1473 213.607 57.6544 213.693 58.1454 213.866C58.6364 214.039 59.0771 214.311 59.4675 214.681C59.8579 215.051 60.1658 215.532 60.3912 216.124C60.6165 216.712 60.7292 217.426 60.7292 218.267V218.907H53.3581V217.555H58.9604C58.9604 217.08 58.8638 216.659 58.6706 216.293C58.4775 215.923 58.2058 215.631 57.8556 215.418C57.5095 215.204 57.103 215.098 56.6362 215.098C56.1291 215.098 55.6864 215.222 55.3081 215.472C54.9338 215.717 54.644 216.039 54.4387 216.438C54.2375 216.832 54.1369 217.261 54.1369 217.724V218.78C54.1369 219.4 54.2456 219.927 54.4629 220.362C54.6842 220.797 54.9921 221.129 55.3865 221.358C55.781 221.583 56.2418 221.696 56.769 221.696C57.1111 221.696 57.423 221.648 57.7047 221.551C57.9864 221.451 58.2299 221.302 58.4352 221.104C58.6404 220.907 58.7974 220.664 58.9061 220.374L60.6145 220.682C60.4777 221.185 60.2322 221.626 59.878 222.004C59.5279 222.378 59.0872 222.67 58.5559 222.879C58.0287 223.085 57.427 223.187 56.7509 223.187ZM67.0605 213.727V215.176H61.9955V213.727H67.0605ZM63.3538 211.506H65.1588V220.277C65.1588 220.627 65.2111 220.891 65.3158 221.068C65.4204 221.241 65.5552 221.36 65.7203 221.424C65.8893 221.485 66.0724 221.515 66.2696 221.515C66.4145 221.515 66.5413 221.505 66.6499 221.485C66.7586 221.465 66.8431 221.449 66.9035 221.436L67.2295 222.928C67.1249 222.968 66.9759 223.008 66.7828 223.048C66.5896 223.093 66.3481 223.117 66.0583 223.121C65.5834 223.129 65.1407 223.044 64.7302 222.867C64.3197 222.69 63.9877 222.416 63.7341 222.046C63.4806 221.676 63.3538 221.211 63.3538 220.652V211.506ZM73.5562 223V213.727H75.3612V223H73.5562ZM74.4678 212.297C74.1539 212.297 73.8842 212.192 73.6588 211.983C73.4375 211.769 73.3268 211.516 73.3268 211.222C73.3268 210.924 73.4375 210.671 73.6588 210.461C73.8842 210.248 74.1539 210.141 74.4678 210.141C74.7817 210.141 75.0493 210.248 75.2707 210.461C75.4961 210.671 75.6088 210.924 75.6088 211.222C75.6088 211.516 75.4961 211.769 75.2707 211.983C75.0493 212.192 74.7817 212.297 74.4678 212.297ZM84.7381 215.991L83.1021 216.281C83.0337 216.072 82.925 215.872 82.7761 215.683C82.6312 215.494 82.434 215.339 82.1845 215.218C81.935 215.098 81.623 215.037 81.2488 215.037C80.7376 215.037 80.311 215.152 79.9689 215.381C79.6268 215.607 79.4558 215.899 79.4558 216.257C79.4558 216.567 79.5705 216.816 79.7999 217.005C80.0293 217.194 80.3996 217.349 80.9107 217.47L82.3837 217.808C83.2369 218.005 83.8728 218.309 84.2914 218.72C84.7099 219.13 84.9192 219.664 84.9192 220.32C84.9192 220.875 84.7582 221.37 84.4363 221.805C84.1183 222.235 83.6736 222.573 83.1021 222.819C82.5346 223.064 81.8766 223.187 81.128 223.187C80.0897 223.187 79.2425 222.966 78.5865 222.523C77.9305 222.076 77.528 221.442 77.3791 220.621L79.1238 220.356C79.2324 220.811 79.4558 221.155 79.7939 221.388C80.1319 221.618 80.5726 221.732 81.1159 221.732C81.7076 221.732 82.1805 221.609 82.5346 221.364C82.8888 221.114 83.0659 220.811 83.0659 220.452C83.0659 220.163 82.9572 219.919 82.7399 219.722C82.5266 219.525 82.1986 219.376 81.7559 219.275L80.1863 218.931C79.321 218.734 78.681 218.42 78.2665 217.989C77.856 217.559 77.6507 217.013 77.6507 216.353C77.6507 215.806 77.8037 215.327 78.1096 214.917C78.4154 214.506 78.838 214.186 79.3773 213.957C79.9166 213.723 80.5344 213.607 81.2306 213.607C82.2328 213.607 83.0216 213.824 83.5971 214.259C84.1726 214.689 84.553 215.267 84.7381 215.991ZM95.3993 223.187C94.4857 223.187 93.6989 222.992 93.0389 222.602C92.3829 222.207 91.8758 221.654 91.5176 220.941C91.1634 220.225 90.9863 219.386 90.9863 218.424C90.9863 217.474 91.1634 216.637 91.5176 215.913C91.8758 215.188 92.3748 214.623 93.0147 214.216C93.6587 213.81 94.4113 213.607 95.2725 213.607C95.7958 213.607 96.3029 213.693 96.7939 213.866C97.2849 214.039 97.7256 214.311 98.1159 214.681C98.5063 215.051 98.8142 215.532 99.0396 216.124C99.265 216.712 99.3777 217.426 99.3777 218.267V218.907H92.0066V217.555H97.6088C97.6088 217.08 97.5123 216.659 97.3191 216.293C97.1259 215.923 96.8542 215.631 96.5041 215.418C96.158 215.204 95.7515 215.098 95.2846 215.098C94.7775 215.098 94.3348 215.222 93.9565 215.472C93.5822 215.717 93.2924 216.039 93.0872 216.438C92.8859 216.832 92.7853 217.261 92.7853 217.724V218.78C92.7853 219.4 92.894 219.927 93.1113 220.362C93.3327 220.797 93.6406 221.129 94.035 221.358C94.4294 221.583 94.8902 221.696 95.4174 221.696C95.7595 221.696 96.0714 221.648 96.3532 221.551C96.6349 221.451 96.8784 221.302 97.0836 221.104C97.2889 220.907 97.4458 220.664 97.5545 220.374L99.263 220.682C99.1261 221.185 98.8806 221.626 98.5265 222.004C98.1763 222.378 97.7356 222.67 97.2044 222.879C96.6771 223.085 96.0755 223.187 95.3993 223.187ZM101.38 223V213.727H103.113V215.237H103.228C103.421 214.725 103.737 214.327 104.176 214.041C104.614 213.751 105.139 213.607 105.751 213.607C106.371 213.607 106.89 213.751 107.309 214.041C107.731 214.331 108.043 214.729 108.244 215.237H108.341C108.562 214.741 108.915 214.347 109.397 214.053C109.88 213.755 110.456 213.607 111.124 213.607C111.965 213.607 112.651 213.87 113.183 214.397C113.718 214.925 113.986 215.719 113.986 216.782V223H112.18V216.951C112.18 216.323 112.009 215.868 111.667 215.587C111.325 215.305 110.917 215.164 110.442 215.164C109.854 215.164 109.397 215.345 109.071 215.707C108.745 216.066 108.582 216.526 108.582 217.09V223H106.783V216.836C106.783 216.333 106.627 215.929 106.313 215.623C105.999 215.317 105.59 215.164 105.087 215.164C104.745 215.164 104.429 215.255 104.139 215.436C103.854 215.613 103.622 215.86 103.445 216.178C103.272 216.496 103.185 216.864 103.185 217.283V223H101.38ZM116.405 226.477V213.727H118.168V215.23H118.319C118.423 215.037 118.574 214.814 118.771 214.56C118.969 214.307 119.242 214.085 119.592 213.896C119.942 213.703 120.405 213.607 120.981 213.607C121.729 213.607 122.397 213.796 122.985 214.174C123.573 214.552 124.033 215.098 124.368 215.81C124.706 216.522 124.875 217.38 124.875 218.382C124.875 219.384 124.708 220.243 124.374 220.96C124.04 221.672 123.581 222.221 122.997 222.608C122.414 222.99 121.748 223.181 120.999 223.181C120.435 223.181 119.975 223.087 119.616 222.897C119.262 222.708 118.985 222.487 118.783 222.233C118.582 221.98 118.427 221.754 118.319 221.557H118.21V226.477H116.405ZM118.174 218.364C118.174 219.016 118.268 219.587 118.457 220.078C118.647 220.569 118.92 220.953 119.278 221.231C119.637 221.505 120.075 221.642 120.594 221.642C121.134 221.642 121.585 221.499 121.947 221.213C122.309 220.923 122.583 220.531 122.768 220.036C122.957 219.541 123.051 218.983 123.051 218.364C123.051 217.752 122.959 217.203 122.774 216.716C122.593 216.229 122.319 215.844 121.953 215.562C121.591 215.281 121.138 215.14 120.594 215.14C120.071 215.14 119.629 215.275 119.266 215.544C118.908 215.814 118.636 216.19 118.451 216.673C118.266 217.156 118.174 217.72 118.174 218.364ZM131.225 213.727V215.176H126.161V213.727H131.225ZM127.519 211.506H129.324V220.277C129.324 220.627 129.376 220.891 129.481 221.068C129.585 221.241 129.72 221.36 129.885 221.424C130.054 221.485 130.237 221.515 130.435 221.515C130.58 221.515 130.706 221.505 130.815 221.485C130.924 221.465 131.008 221.449 131.069 221.436L131.395 222.928C131.29 222.968 131.141 223.008 130.948 223.048C130.755 223.093 130.513 223.117 130.223 223.121C129.748 223.129 129.306 223.044 128.895 222.867C128.485 222.69 128.153 222.416 127.899 222.046C127.646 221.676 127.519 221.211 127.519 220.652V211.506ZM134.363 226.477C134.094 226.477 133.848 226.455 133.627 226.411C133.405 226.371 133.24 226.326 133.132 226.278L133.566 224.799C133.896 224.888 134.19 224.926 134.448 224.914C134.705 224.902 134.933 224.805 135.13 224.624C135.331 224.443 135.508 224.147 135.661 223.737L135.884 223.121L132.492 213.727H134.424L136.772 220.923H136.869L139.217 213.727H141.155L137.333 224.238C137.156 224.721 136.931 225.129 136.657 225.463C136.384 225.801 136.058 226.055 135.679 226.224C135.301 226.393 134.862 226.477 134.363 226.477Z" fill="#553CDF"/>
<path d="M1.6076 236L0.220526 231.091H1.39986L2.26278 234.543H2.30753L3.18963 231.091H4.35618L5.23828 234.523H5.28622L6.13636 231.091H7.31889L5.92862 236H4.72372L3.80327 232.683H3.73615L2.8157 236H1.6076ZM9.53933 236.099C9.22825 236.099 8.94806 236.044 8.69877 235.933C8.45162 235.82 8.25559 235.654 8.11071 235.434C7.96795 235.215 7.89657 234.944 7.89657 234.623C7.89657 234.346 7.94771 234.116 8.04998 233.935C8.15225 233.754 8.29181 233.609 8.46866 233.501C8.64551 233.392 8.84473 233.31 9.06632 233.255C9.29004 233.197 9.52122 233.156 9.75985 233.13C10.0475 233.1 10.2808 233.074 10.4598 233.05C10.6388 233.025 10.7687 232.986 10.8497 232.935C10.9328 232.882 10.9743 232.8 10.9743 232.689V232.67C10.9743 232.429 10.903 232.243 10.7602 232.11C10.6175 231.978 10.4118 231.912 10.1434 231.912C9.86 231.912 9.63521 231.974 9.46902 232.098C9.30495 232.221 9.19416 232.367 9.13663 232.536L8.05637 232.382C8.1416 232.084 8.28223 231.835 8.47825 231.634C8.67427 231.432 8.91397 231.281 9.19735 231.18C9.48074 231.078 9.79395 231.027 10.137 231.027C10.3735 231.027 10.6089 231.055 10.8433 231.11C11.0777 231.165 11.2918 231.257 11.4857 231.385C11.6796 231.511 11.8351 231.682 11.9523 231.9C12.0716 232.117 12.1313 232.388 12.1313 232.714V236H11.0191V235.326H10.9807C10.9104 235.462 10.8113 235.59 10.6835 235.709C10.5578 235.826 10.3991 235.921 10.2073 235.994C10.0177 236.064 9.79501 236.099 9.53933 236.099ZM9.83976 235.249C10.072 235.249 10.2733 235.203 10.4438 235.112C10.6143 235.018 10.7453 234.894 10.8369 234.741C10.9307 234.587 10.9775 234.42 10.9775 234.239V233.661C10.9413 233.69 10.8795 233.718 10.7922 233.744C10.7069 233.769 10.6111 233.792 10.5045 233.811C10.398 233.83 10.2925 233.847 10.1881 233.862C10.0837 233.877 9.99316 233.89 9.91646 233.9C9.74387 233.924 9.5894 233.962 9.45304 234.015C9.31667 234.069 9.20907 234.143 9.13024 234.239C9.0514 234.333 9.01199 234.454 9.01199 234.603C9.01199 234.816 9.08976 234.977 9.24529 235.086C9.40083 235.195 9.59899 235.249 9.83976 235.249ZM13.2947 236V231.091H14.4516V236H13.2947ZM13.8763 230.394C13.6931 230.394 13.5354 230.333 13.4033 230.212C13.2712 230.088 13.2052 229.94 13.2052 229.768C13.2052 229.593 13.2712 229.445 13.4033 229.324C13.5354 229.2 13.6931 229.138 13.8763 229.138C14.0617 229.138 14.2194 229.2 14.3493 229.324C14.4814 229.445 14.5475 229.593 14.5475 229.768C14.5475 229.94 14.4814 230.088 14.3493 230.212C14.2194 230.333 14.0617 230.394 13.8763 230.394ZM18.0927 231.091V231.986H15.2706V231.091H18.0927ZM15.9673 229.915H17.1243V234.523C17.1243 234.679 17.1477 234.798 17.1946 234.881C17.2436 234.962 17.3075 235.018 17.3864 235.048C17.4652 235.077 17.5526 235.092 17.6484 235.092C17.7209 235.092 17.7869 235.087 17.8466 235.076C17.9084 235.066 17.9553 235.056 17.9872 235.048L18.1822 235.952C18.1204 235.973 18.032 235.997 17.9169 236.022C17.804 236.048 17.6655 236.063 17.5014 236.067C17.2116 236.076 16.9506 236.032 16.7184 235.936C16.4862 235.838 16.3018 235.687 16.1655 235.482C16.0313 235.278 15.9652 235.022 15.9673 234.715V229.915ZM23.7441 231.091V231.986H20.922V231.091H23.7441ZM21.6187 229.915H22.7757V234.523C22.7757 234.679 22.7991 234.798 22.846 234.881C22.895 234.962 22.9589 235.018 23.0377 235.048C23.1166 235.077 23.2039 235.092 23.2998 235.092C23.3722 235.092 23.4383 235.087 23.498 235.076C23.5597 235.066 23.6066 235.056 23.6386 235.048L23.8335 235.952C23.7718 235.973 23.6833 235.997 23.5683 236.022C23.4553 236.048 23.3169 236.063 23.1528 236.067C22.863 236.076 22.602 236.032 22.3698 235.936C22.1375 235.838 21.9532 235.687 21.8169 235.482C21.6826 235.278 21.6166 235.022 21.6187 234.715V229.915ZM24.7116 236V231.091H25.8686V236H24.7116ZM25.2933 230.394C25.1101 230.394 24.9524 230.333 24.8203 230.212C24.6882 230.088 24.6222 229.94 24.6222 229.768C24.6222 229.593 24.6882 229.445 24.8203 229.324C24.9524 229.2 25.1101 229.138 25.2933 229.138C25.4787 229.138 25.6364 229.2 25.7663 229.324C25.8984 229.445 25.9645 229.593 25.9645 229.768C25.9645 229.94 25.8984 230.088 25.7663 230.212C25.6364 230.333 25.4787 230.394 25.2933 230.394ZM28.2153 229.455V236H27.0583V229.455H28.2153ZM30.562 229.455V236H29.405V229.455H30.562ZM37.8641 232.388L36.8094 232.504C36.7796 232.397 36.7274 232.297 36.6528 232.203C36.5803 232.109 36.4823 232.034 36.3588 231.976C36.2352 231.919 36.0839 231.89 35.9049 231.89C35.6642 231.89 35.4617 231.942 35.2977 232.047C35.1357 232.151 35.0558 232.286 35.058 232.452C35.0558 232.595 35.108 232.711 35.2146 232.801C35.3232 232.89 35.5022 232.964 35.7515 233.021L36.5889 233.2C37.0534 233.3 37.3985 233.459 37.6244 233.676C37.8524 233.894 37.9674 234.178 37.9695 234.53C37.9674 234.839 37.8769 235.112 37.6979 235.348C37.521 235.582 37.2749 235.766 36.9596 235.898C36.6443 236.03 36.282 236.096 35.873 236.096C35.2721 236.096 34.7884 235.97 34.422 235.719C34.0555 235.465 33.8371 235.113 33.7668 234.661L34.895 234.552C34.9461 234.774 35.0548 234.941 35.221 235.054C35.3872 235.167 35.6034 235.223 35.8698 235.223C36.1446 235.223 36.3651 235.167 36.5313 235.054C36.6997 234.941 36.7838 234.801 36.7838 234.635C36.7838 234.495 36.7295 234.379 36.6208 234.287C36.5143 234.195 36.3481 234.125 36.1222 234.076L35.2849 233.9C34.814 233.802 34.4656 233.637 34.2398 233.405C34.0139 233.17 33.9021 232.874 33.9042 232.516C33.9021 232.214 33.9841 231.952 34.1503 231.73C34.3186 231.506 34.5519 231.334 34.8502 231.212C35.1507 231.089 35.4969 231.027 35.8889 231.027C36.4642 231.027 36.917 231.15 37.2472 231.395C37.5796 231.64 37.7852 231.971 37.8641 232.388ZM41.0649 236.096C40.5855 236.096 40.17 235.99 39.8184 235.779C39.4669 235.569 39.1942 235.273 39.0003 234.894C38.8085 234.515 38.7126 234.072 38.7126 233.565C38.7126 233.058 38.8085 232.613 39.0003 232.232C39.1942 231.85 39.4669 231.554 39.8184 231.343C40.17 231.132 40.5855 231.027 41.0649 231.027C41.5443 231.027 41.9598 231.132 42.3113 231.343C42.6629 231.554 42.9346 231.85 43.1263 232.232C43.3202 232.613 43.4172 233.058 43.4172 233.565C43.4172 234.072 43.3202 234.515 43.1263 234.894C42.9346 235.273 42.6629 235.569 42.3113 235.779C41.9598 235.99 41.5443 236.096 41.0649 236.096ZM41.0713 235.169C41.3312 235.169 41.5486 235.098 41.7233 234.955C41.898 234.81 42.028 234.616 42.1132 234.373C42.2006 234.13 42.2442 233.86 42.2442 233.561C42.2442 233.261 42.2006 232.989 42.1132 232.746C42.028 232.501 41.898 232.306 41.7233 232.162C41.5486 232.017 41.3312 231.944 41.0713 231.944C40.805 231.944 40.5834 232.017 40.4065 232.162C40.2318 232.306 40.1008 232.501 40.0134 232.746C39.9282 232.989 39.8856 233.261 39.8856 233.561C39.8856 233.86 39.9282 234.13 40.0134 234.373C40.1008 234.616 40.2318 234.81 40.4065 234.955C40.5834 235.098 40.805 235.169 41.0713 235.169ZM44.3991 236V231.091H45.505V231.925H45.5625C45.6648 231.644 45.8342 231.424 46.0707 231.267C46.3072 231.107 46.5895 231.027 46.9176 231.027C47.25 231.027 47.5302 231.108 47.7582 231.27C47.9883 231.43 48.1502 231.648 48.244 231.925H48.2951C48.4038 231.652 48.587 231.435 48.8448 231.273C49.1048 231.109 49.4126 231.027 49.7685 231.027C50.2202 231.027 50.5888 231.17 50.8743 231.455C51.1598 231.741 51.3026 232.157 51.3026 232.705V236H50.1424V232.884C50.1424 232.579 50.0614 232.357 49.8995 232.216C49.7376 232.073 49.5394 232.002 49.305 232.002C49.0259 232.002 48.8075 232.089 48.6499 232.264C48.4943 232.436 48.4165 232.661 48.4165 232.938V236H47.282V232.836C47.282 232.582 47.2053 232.38 47.0518 232.229C46.9006 232.077 46.7024 232.002 46.4574 232.002C46.2912 232.002 46.1399 232.044 46.0036 232.13C45.8672 232.213 45.7585 232.331 45.6776 232.484C45.5966 232.636 45.5561 232.812 45.5561 233.015V236H44.3991ZM54.6496 236.096C54.1574 236.096 53.7323 235.994 53.3744 235.789C53.0186 235.582 52.7448 235.29 52.553 234.913C52.3612 234.534 52.2654 234.088 52.2654 233.574C52.2654 233.069 52.3612 232.626 52.553 232.245C52.7469 231.861 53.0175 231.563 53.3648 231.35C53.7121 231.135 54.1201 231.027 54.5889 231.027C54.8914 231.027 55.1769 231.076 55.4454 231.174C55.716 231.27 55.9546 231.419 56.1613 231.621C56.3701 231.824 56.5342 232.082 56.6535 232.395C56.7728 232.706 56.8325 233.077 56.8325 233.507V233.862H52.8087V233.082H55.7235C55.7213 232.86 55.6734 232.663 55.5796 232.491C55.4859 232.316 55.3548 232.179 55.1865 232.078C55.0203 231.978 54.8264 231.928 54.6048 231.928C54.3683 231.928 54.1606 231.986 53.9816 232.101C53.8026 232.214 53.6631 232.363 53.5629 232.548C53.4649 232.732 53.4149 232.933 53.4127 233.152V233.833C53.4127 234.119 53.4649 234.364 53.5693 234.568C53.6737 234.771 53.8197 234.926 54.0072 235.035C54.1947 235.141 54.4142 235.195 54.6656 235.195C54.8339 235.195 54.9862 235.171 55.1226 235.124C55.259 235.075 55.3772 235.004 55.4774 234.91C55.5775 234.816 55.6531 234.7 55.7043 234.562L56.7845 234.683C56.7164 234.969 56.5864 235.218 56.3946 235.431C56.205 235.642 55.9621 235.806 55.6659 235.923C55.3698 236.038 55.031 236.096 54.6496 236.096ZM59.9526 236.096C59.4732 236.096 59.0577 235.99 58.7061 235.779C58.3546 235.569 58.0819 235.273 57.888 234.894C57.6962 234.515 57.6003 234.072 57.6003 233.565C57.6003 233.058 57.6962 232.613 57.888 232.232C58.0819 231.85 58.3546 231.554 58.7061 231.343C59.0577 231.132 59.4732 231.027 59.9526 231.027C60.432 231.027 60.8475 231.132 61.199 231.343C61.5506 231.554 61.8223 231.85 62.014 232.232C62.2079 232.613 62.3049 233.058 62.3049 233.565C62.3049 234.072 62.2079 234.515 62.014 234.894C61.8223 235.273 61.5506 235.569 61.199 235.779C60.8475 235.99 60.432 236.096 59.9526 236.096ZM59.959 235.169C60.2189 235.169 60.4363 235.098 60.611 234.955C60.7857 234.81 60.9157 234.616 61.0009 234.373C61.0882 234.13 61.1319 233.86 61.1319 233.561C61.1319 233.261 61.0882 232.989 61.0009 232.746C60.9157 232.501 60.7857 232.306 60.611 232.162C60.4363 232.017 60.2189 231.944 59.959 231.944C59.6926 231.944 59.4711 232.017 59.2942 232.162C59.1195 232.306 58.9885 232.501 58.9011 232.746C58.8159 232.989 58.7733 233.261 58.7733 233.561C58.7733 233.86 58.8159 234.13 58.9011 234.373C58.9885 234.616 59.1195 234.81 59.2942 234.955C59.4711 235.098 59.6926 235.169 59.959 235.169ZM64.4438 233.124V236H63.2868V231.091H64.3927V231.925H64.4502C64.5631 231.65 64.7432 231.432 64.9903 231.27C65.2396 231.108 65.5475 231.027 65.914 231.027C66.2528 231.027 66.5479 231.099 66.7993 231.244C67.0528 231.389 67.2488 231.599 67.3873 231.874C67.528 232.149 67.5972 232.482 67.5951 232.874V236H66.4381V233.053C66.4381 232.725 66.3529 232.468 66.1824 232.283C66.0141 232.098 65.7808 232.005 65.4825 232.005C65.2801 232.005 65.1001 232.05 64.9424 232.139C64.7868 232.227 64.6643 232.353 64.5748 232.52C64.4875 232.686 64.4438 232.887 64.4438 233.124ZM70.9445 236.096C70.4523 236.096 70.0273 235.994 69.6693 235.789C69.3135 235.582 69.0397 235.29 68.8479 234.913C68.6562 234.534 68.5603 234.088 68.5603 233.574C68.5603 233.069 68.6562 232.626 68.8479 232.245C69.0418 231.861 69.3124 231.563 69.6597 231.35C70.007 231.135 70.415 231.027 70.8838 231.027C71.1863 231.027 71.4719 231.076 71.7403 231.174C72.0109 231.27 72.2496 231.419 72.4562 231.621C72.665 231.824 72.8291 232.082 72.9484 232.395C73.0677 232.706 73.1274 233.077 73.1274 233.507V233.862H69.1036V233.082H72.0184C72.0162 232.86 71.9683 232.663 71.8746 232.491C71.7808 232.316 71.6498 232.179 71.4814 232.078C71.3153 231.978 71.1214 231.928 70.8998 231.928C70.6633 231.928 70.4555 231.986 70.2765 232.101C70.0976 232.214 69.958 232.363 69.8579 232.548C69.7599 232.732 69.7098 232.933 69.7077 233.152V233.833C69.7077 234.119 69.7599 234.364 69.8643 234.568C69.9687 234.771 70.1146 234.926 70.3021 235.035C70.4896 235.141 70.7091 235.195 70.9605 235.195C71.1288 235.195 71.2812 235.171 71.4175 235.124C71.5539 235.075 71.6721 235.004 71.7723 234.91C71.8724 234.816 71.9481 234.7 71.9992 234.562L73.0795 234.683C73.0113 234.969 72.8813 235.218 72.6895 235.431C72.4999 235.642 72.257 235.806 71.9608 235.923C71.6647 236.038 71.3259 236.096 70.9445 236.096ZM77.4956 229.455V236H76.3386V229.455H77.4956ZM78.6853 236V231.091H79.8422V236H78.6853ZM79.267 230.394C79.0837 230.394 78.926 230.333 78.7939 230.212C78.6618 230.088 78.5958 229.94 78.5958 229.768C78.5958 229.593 78.6618 229.445 78.7939 229.324C78.926 229.2 79.0837 229.138 79.267 229.138C79.4523 229.138 79.61 229.2 79.74 229.324C79.8721 229.445 79.9381 229.593 79.9381 229.768C79.9381 229.94 79.8721 230.088 79.74 230.212C79.61 230.333 79.4523 230.394 79.267 230.394ZM84.9119 232.388L83.8572 232.504C83.8274 232.397 83.7752 232.297 83.7006 232.203C83.6282 232.109 83.5302 232.034 83.4066 231.976C83.283 231.919 83.1317 231.89 82.9528 231.89C82.712 231.89 82.5096 231.942 82.3455 232.047C82.1836 232.151 82.1037 232.286 82.1058 232.452C82.1037 232.595 82.1559 232.711 82.2624 232.801C82.3711 232.89 82.5501 232.964 82.7994 233.021L83.6367 233.2C84.1012 233.3 84.4464 233.459 84.6722 233.676C84.9002 233.894 85.0153 234.178 85.0174 234.53C85.0153 234.839 84.9247 235.112 84.7457 235.348C84.5689 235.582 84.3228 235.766 84.0075 235.898C83.6921 236.03 83.3299 236.096 82.9208 236.096C82.32 236.096 81.8363 235.97 81.4698 235.719C81.1033 235.465 80.8849 235.113 80.8146 234.661L81.9428 234.552C81.994 234.774 82.1026 234.941 82.2688 235.054C82.435 235.167 82.6513 235.223 82.9176 235.223C83.1925 235.223 83.413 235.167 83.5792 235.054C83.7475 234.941 83.8317 234.801 83.8317 234.635C83.8317 234.495 83.7773 234.379 83.6687 234.287C83.5621 234.195 83.396 234.125 83.1701 234.076L82.3327 233.9C81.8619 233.802 81.5135 233.637 81.2876 233.405C81.0618 233.17 80.9499 232.874 80.9521 232.516C80.9499 232.214 81.032 231.952 81.1982 231.73C81.3665 231.506 81.5998 231.334 81.8981 231.212C82.1985 231.089 82.5447 231.027 82.9368 231.027C83.5121 231.027 83.9648 231.15 84.2951 231.395C84.6275 231.64 84.8331 231.971 84.9119 232.388ZM88.4228 231.091V231.986H85.6007V231.091H88.4228ZM86.2974 229.915H87.4544V234.523C87.4544 234.679 87.4778 234.798 87.5247 234.881C87.5737 234.962 87.6376 235.018 87.7164 235.048C87.7953 235.077 87.8826 235.092 87.9785 235.092C88.051 235.092 88.117 235.087 88.1767 235.076C88.2385 235.066 88.2853 235.056 88.3173 235.048L88.5123 235.952C88.4505 235.973 88.362 235.997 88.247 236.022C88.1341 236.048 87.9956 236.063 87.8315 236.067C87.5417 236.076 87.2807 236.032 87.0485 235.936C86.8162 235.838 86.6319 235.687 86.4956 235.482C86.3613 235.278 86.2953 235.022 86.2974 234.715V229.915ZM93.2 232.388L92.1453 232.504C92.1155 232.397 92.0633 232.297 91.9887 232.203C91.9163 232.109 91.8183 232.034 91.6947 231.976C91.5711 231.919 91.4198 231.89 91.2409 231.89C91.0001 231.89 90.7977 231.942 90.6336 232.047C90.4717 232.151 90.3918 232.286 90.3939 232.452C90.3918 232.595 90.444 232.711 90.5505 232.801C90.6592 232.89 90.8382 232.964 91.0874 233.021L91.9248 233.2C92.3893 233.3 92.7345 233.459 92.9603 233.676C93.1883 233.894 93.3034 234.178 93.3055 234.53C93.3034 234.839 93.2128 235.112 93.0338 235.348C92.857 235.582 92.6109 235.766 92.2955 235.898C91.9802 236.03 91.618 236.096 91.2089 236.096C90.608 236.096 90.1244 235.97 89.7579 235.719C89.3914 235.465 89.173 235.113 89.1027 234.661L90.2309 234.552C90.282 234.774 90.3907 234.941 90.5569 235.054C90.7231 235.167 90.9394 235.223 91.2057 235.223C91.4806 235.223 91.7011 235.167 91.8673 235.054C92.0356 234.941 92.1198 234.801 92.1198 234.635C92.1198 234.495 92.0654 234.379 91.9568 234.287C91.8502 234.195 91.684 234.125 91.4582 234.076L90.6208 233.9C90.1499 233.802 89.8016 233.637 89.5757 233.405C89.3499 233.17 89.238 232.874 89.2401 232.516C89.238 232.214 89.32 231.952 89.4862 231.73C89.6546 231.506 89.8879 231.334 90.1862 231.212C90.4866 231.089 90.8328 231.027 91.2249 231.027C91.8002 231.027 92.2529 231.15 92.5832 231.395C92.9156 231.64 93.1212 231.971 93.2 232.388ZM97.9046 236.099C97.5935 236.099 97.3133 236.044 97.064 235.933C96.8169 235.82 96.6208 235.654 96.4759 235.434C96.3332 235.215 96.2618 234.944 96.2618 234.623C96.2618 234.346 96.3129 234.116 96.4152 233.935C96.5175 233.754 96.657 233.609 96.8339 233.501C97.0107 233.392 97.21 233.31 97.4316 233.255C97.6553 233.197 97.8865 233.156 98.1251 233.13C98.4127 233.1 98.646 233.074 98.825 233.05C99.004 233.025 99.134 232.986 99.2149 232.935C99.298 232.882 99.3396 232.8 99.3396 232.689V232.67C99.3396 232.429 99.2682 232.243 99.1254 232.11C98.9827 231.978 98.7771 231.912 98.5086 231.912C98.2252 231.912 98.0004 231.974 97.8343 232.098C97.6702 232.221 97.5594 232.367 97.5019 232.536L96.4216 232.382C96.5068 232.084 96.6475 231.835 96.8435 231.634C97.0395 231.432 97.2792 231.281 97.5626 231.18C97.846 231.078 98.1592 231.027 98.5022 231.027C98.7387 231.027 98.9742 231.055 99.2085 231.11C99.4429 231.165 99.657 231.257 99.8509 231.385C100.045 231.511 100.2 231.682 100.318 231.9C100.437 232.117 100.497 232.388 100.497 232.714V236H99.3843V235.326H99.346C99.2757 235.462 99.1766 235.59 99.0487 235.709C98.923 235.826 98.7643 235.921 98.5725 235.994C98.3829 236.064 98.1602 236.099 97.9046 236.099ZM98.205 235.249C98.4372 235.249 98.6386 235.203 98.809 235.112C98.9795 235.018 99.1105 234.894 99.2021 234.741C99.2959 234.587 99.3428 234.42 99.3428 234.239V233.661C99.3066 233.69 99.2448 233.718 99.1574 233.744C99.0722 233.769 98.9763 233.792 98.8698 233.811C98.7632 233.83 98.6578 233.847 98.5534 233.862C98.449 233.877 98.3584 233.89 98.2817 233.9C98.1091 233.924 97.9546 233.962 97.8183 234.015C97.6819 234.069 97.5743 234.143 97.4955 234.239C97.4166 234.333 97.3772 234.454 97.3772 234.603C97.3772 234.816 97.455 234.977 97.6105 235.086C97.7661 235.195 97.9642 235.249 98.205 235.249ZM107.772 232.388L106.718 232.504C106.688 232.397 106.636 232.297 106.561 232.203C106.489 232.109 106.391 232.034 106.267 231.976C106.143 231.919 105.992 231.89 105.813 231.89C105.572 231.89 105.37 231.942 105.206 232.047C105.044 232.151 104.964 232.286 104.966 232.452C104.964 232.595 105.016 232.711 105.123 232.801C105.231 232.89 105.41 232.964 105.66 233.021L106.497 233.2C106.962 233.3 107.307 233.459 107.533 233.676C107.761 233.894 107.876 234.178 107.878 234.53C107.876 234.839 107.785 235.112 107.606 235.348C107.429 235.582 107.183 235.766 106.868 235.898C106.552 236.03 106.19 236.096 105.781 236.096C105.18 236.096 104.697 235.97 104.33 235.719C103.964 235.465 103.745 235.113 103.675 234.661L104.803 234.552C104.854 234.774 104.963 234.941 105.129 235.054C105.295 235.167 105.512 235.223 105.778 235.223C106.053 235.223 106.273 235.167 106.44 235.054C106.608 234.941 106.692 234.801 106.692 234.635C106.692 234.495 106.638 234.379 106.529 234.287C106.422 234.195 106.256 234.125 106.03 234.076L105.193 233.9C104.722 233.802 104.374 233.637 104.148 233.405C103.922 233.17 103.81 232.874 103.812 232.516C103.81 232.214 103.892 231.952 104.059 231.73C104.227 231.506 104.46 231.334 104.758 231.212C105.059 231.089 105.405 231.027 105.797 231.027C106.372 231.027 106.825 231.15 107.155 231.395C107.488 231.64 107.693 231.971 107.772 232.388ZM110.973 236.096C110.494 236.096 110.078 235.99 109.727 235.779C109.375 235.569 109.102 235.273 108.908 234.894C108.717 234.515 108.621 234.072 108.621 233.565C108.621 233.058 108.717 232.613 108.908 232.232C109.102 231.85 109.375 231.554 109.727 231.343C110.078 231.132 110.494 231.027 110.973 231.027C111.453 231.027 111.868 231.132 112.22 231.343C112.571 231.554 112.843 231.85 113.035 232.232C113.228 232.613 113.325 233.058 113.325 233.565C113.325 234.072 113.228 234.515 113.035 234.894C112.843 235.273 112.571 235.569 112.22 235.779C111.868 235.99 111.453 236.096 110.973 236.096ZM110.979 235.169C111.239 235.169 111.457 235.098 111.631 234.955C111.806 234.81 111.936 234.616 112.021 234.373C112.109 234.13 112.152 233.86 112.152 233.561C112.152 233.261 112.109 232.989 112.021 232.746C111.936 232.501 111.806 232.306 111.631 232.162C111.457 232.017 111.239 231.944 110.979 231.944C110.713 231.944 110.492 232.017 110.315 232.162C110.14 232.306 110.009 232.501 109.922 232.746C109.836 232.989 109.794 233.261 109.794 233.561C109.794 233.86 109.836 234.13 109.922 234.373C110.009 234.616 110.14 234.81 110.315 234.955C110.492 235.098 110.713 235.169 110.979 235.169ZM115.464 233.124V236H114.307V231.091H115.413V231.925H115.471C115.584 231.65 115.764 231.432 116.011 231.27C116.26 231.108 116.568 231.027 116.934 231.027C117.273 231.027 117.568 231.099 117.82 231.244C118.073 231.389 118.269 231.599 118.408 231.874C118.548 232.149 118.618 232.482 118.616 232.874V236H117.459V233.053C117.459 232.725 117.373 232.468 117.203 232.283C117.035 232.098 116.801 232.005 116.503 232.005C116.301 232.005 116.121 232.05 115.963 232.139C115.807 232.227 115.685 232.353 115.595 232.52C115.508 232.686 115.464 232.887 115.464 233.124ZM121.927 237.943C121.511 237.943 121.154 237.887 120.856 237.774C120.558 237.663 120.318 237.514 120.137 237.326C119.956 237.139 119.83 236.931 119.76 236.703L120.802 236.451C120.849 236.547 120.917 236.641 121.006 236.735C121.096 236.831 121.216 236.91 121.367 236.972C121.521 237.036 121.714 237.067 121.946 237.067C122.274 237.067 122.546 236.988 122.761 236.828C122.976 236.67 123.084 236.41 123.084 236.048V235.118H123.026C122.966 235.237 122.879 235.36 122.764 235.485C122.651 235.611 122.501 235.717 122.313 235.802C122.128 235.887 121.895 235.93 121.613 235.93C121.236 235.93 120.894 235.841 120.588 235.664C120.283 235.485 120.04 235.219 119.859 234.865C119.68 234.51 119.59 234.064 119.59 233.529C119.59 232.99 119.68 232.536 119.859 232.165C120.04 231.792 120.284 231.51 120.591 231.318C120.898 231.124 121.24 231.027 121.617 231.027C121.904 231.027 122.141 231.076 122.326 231.174C122.514 231.27 122.663 231.386 122.774 231.522C122.884 231.657 122.969 231.783 123.026 231.903H123.09V231.091H124.231V236.08C124.231 236.5 124.131 236.847 123.931 237.122C123.73 237.397 123.456 237.602 123.109 237.739C122.762 237.875 122.368 237.943 121.927 237.943ZM121.936 235.022C122.181 235.022 122.39 234.962 122.563 234.843C122.735 234.724 122.866 234.552 122.956 234.328C123.045 234.105 123.09 233.836 123.09 233.523C123.09 233.214 123.045 232.944 122.956 232.711C122.868 232.479 122.738 232.299 122.566 232.171C122.395 232.041 122.186 231.976 121.936 231.976C121.678 231.976 121.463 232.043 121.291 232.178C121.118 232.312 120.988 232.496 120.901 232.73C120.813 232.963 120.77 233.227 120.77 233.523C120.77 233.824 120.813 234.087 120.901 234.312C120.99 234.536 121.121 234.711 121.294 234.837C121.469 234.96 121.683 235.022 121.936 235.022ZM130.136 231.091V231.986H127.234V231.091H130.136ZM127.959 236V230.627C127.959 230.297 128.027 230.022 128.164 229.803C128.302 229.583 128.488 229.419 128.72 229.311C128.952 229.202 129.21 229.148 129.493 229.148C129.694 229.148 129.871 229.164 130.027 229.196C130.183 229.228 130.298 229.256 130.372 229.282L130.142 230.177C130.093 230.162 130.031 230.147 129.957 230.132C129.882 230.115 129.799 230.107 129.707 230.107C129.492 230.107 129.34 230.159 129.25 230.263C129.163 230.365 129.119 230.512 129.119 230.704V236H127.959ZM132.998 236.096C132.519 236.096 132.104 235.99 131.752 235.779C131.4 235.569 131.128 235.273 130.934 234.894C130.742 234.515 130.646 234.072 130.646 233.565C130.646 233.058 130.742 232.613 130.934 232.232C131.128 231.85 131.4 231.554 131.752 231.343C132.104 231.132 132.519 231.027 132.998 231.027C133.478 231.027 133.893 231.132 134.245 231.343C134.597 231.554 134.868 231.85 135.06 232.232C135.254 232.613 135.351 233.058 135.351 233.565C135.351 234.072 135.254 234.515 135.06 234.894C134.868 235.273 134.597 235.569 134.245 235.779C133.893 235.99 133.478 236.096 132.998 236.096ZM133.005 235.169C133.265 235.169 133.482 235.098 133.657 234.955C133.832 234.81 133.962 234.616 134.047 234.373C134.134 234.13 134.178 233.86 134.178 233.561C134.178 233.261 134.134 232.989 134.047 232.746C133.962 232.501 133.832 232.306 133.657 232.162C133.482 232.017 133.265 231.944 133.005 231.944C132.739 231.944 132.517 232.017 132.34 232.162C132.165 232.306 132.034 232.501 131.947 232.746C131.862 232.989 131.819 233.261 131.819 233.561C131.819 233.86 131.862 234.13 131.947 234.373C132.034 234.616 132.165 234.81 132.34 234.955C132.517 235.098 132.739 235.169 133.005 235.169ZM136.333 236V231.091H137.455V231.909H137.506C137.595 231.626 137.749 231.407 137.966 231.254C138.185 231.098 138.436 231.021 138.717 231.021C138.781 231.021 138.852 231.024 138.931 231.03C139.012 231.034 139.079 231.042 139.132 231.053V232.117C139.083 232.1 139.006 232.085 138.899 232.072C138.795 232.057 138.694 232.05 138.596 232.05C138.385 232.05 138.195 232.096 138.027 232.187C137.86 232.277 137.729 232.401 137.634 232.561C137.538 232.721 137.49 232.905 137.49 233.114V236H136.333ZM146.013 232.388L144.959 232.504C144.929 232.397 144.877 232.297 144.802 232.203C144.73 232.109 144.632 232.034 144.508 231.976C144.385 231.919 144.233 231.89 144.054 231.89C143.814 231.89 143.611 231.942 143.447 232.047C143.285 232.151 143.205 232.286 143.207 232.452C143.205 232.595 143.257 232.711 143.364 232.801C143.473 232.89 143.652 232.964 143.901 233.021L144.738 233.2C145.203 233.3 145.548 233.459 145.774 233.676C146.002 233.894 146.117 234.178 146.119 234.53C146.117 234.839 146.026 235.112 145.847 235.348C145.67 235.582 145.424 235.766 145.109 235.898C144.794 236.03 144.431 236.096 144.022 236.096C143.422 236.096 142.938 235.97 142.571 235.719C142.205 235.465 141.987 235.113 141.916 234.661L143.044 234.552C143.096 234.774 143.204 234.941 143.37 235.054C143.537 235.167 143.753 235.223 144.019 235.223C144.294 235.223 144.515 235.167 144.681 235.054C144.849 234.941 144.933 234.801 144.933 234.635C144.933 234.495 144.879 234.379 144.77 234.287C144.664 234.195 144.498 234.125 144.272 234.076L143.434 233.9C142.963 233.802 142.615 233.637 142.389 233.405C142.163 233.17 142.051 232.874 142.054 232.516C142.051 232.214 142.134 231.952 142.3 231.73C142.468 231.506 142.701 231.334 143 231.212C143.3 231.089 143.646 231.027 144.038 231.027C144.614 231.027 145.066 231.15 145.397 231.395C145.729 231.64 145.935 231.971 146.013 232.388ZM148.486 236.099C148.175 236.099 147.894 236.044 147.645 235.933C147.398 235.82 147.202 235.654 147.057 235.434C146.914 235.215 146.843 234.944 146.843 234.623C146.843 234.346 146.894 234.116 146.996 233.935C147.099 233.754 147.238 233.609 147.415 233.501C147.592 233.392 147.791 233.31 148.013 233.255C148.236 233.197 148.468 233.156 148.706 233.13C148.994 233.1 149.227 233.074 149.406 233.05C149.585 233.025 149.715 232.986 149.796 232.935C149.879 232.882 149.921 232.8 149.921 232.689V232.67C149.921 232.429 149.849 232.243 149.706 232.11C149.564 231.978 149.358 231.912 149.09 231.912C148.806 231.912 148.581 231.974 148.415 232.098C148.251 232.221 148.14 232.367 148.083 232.536L147.003 232.382C147.088 232.084 147.229 231.835 147.425 231.634C147.621 231.432 147.86 231.281 148.144 231.18C148.427 231.078 148.74 231.027 149.083 231.027C149.32 231.027 149.555 231.055 149.79 231.11C150.024 231.165 150.238 231.257 150.432 231.385C150.626 231.511 150.781 231.682 150.899 231.9C151.018 232.117 151.078 232.388 151.078 232.714V236H149.965V235.326H149.927C149.857 235.462 149.758 235.59 149.63 235.709C149.504 235.826 149.345 235.921 149.154 235.994C148.964 236.064 148.741 236.099 148.486 236.099ZM148.786 235.249C149.018 235.249 149.22 235.203 149.39 235.112C149.561 235.018 149.692 234.894 149.783 234.741C149.877 234.587 149.924 234.42 149.924 234.239V233.661C149.888 233.69 149.826 233.718 149.738 233.744C149.653 233.769 149.557 233.792 149.451 233.811C149.344 233.83 149.239 233.847 149.134 233.862C149.03 233.877 148.939 233.89 148.863 233.9C148.69 233.924 148.536 233.962 148.399 234.015C148.263 234.069 148.155 234.143 148.077 234.239C147.998 234.333 147.958 234.454 147.958 234.603C147.958 234.816 148.036 234.977 148.192 235.086C148.347 235.195 148.545 235.249 148.786 235.249ZM153.398 229.455V236H152.241V229.455H153.398ZM156.761 236.096C156.269 236.096 155.844 235.994 155.486 235.789C155.13 235.582 154.856 235.29 154.664 234.913C154.473 234.534 154.377 234.088 154.377 233.574C154.377 233.069 154.473 232.626 154.664 232.245C154.858 231.861 155.129 231.563 155.476 231.35C155.823 231.135 156.231 231.027 156.7 231.027C157.003 231.027 157.288 231.076 157.557 231.174C157.827 231.27 158.066 231.419 158.273 231.621C158.481 231.824 158.646 232.082 158.765 232.395C158.884 232.706 158.944 233.077 158.944 233.507V233.862H154.92V233.082H157.835C157.833 232.86 157.785 232.663 157.691 232.491C157.597 232.316 157.466 232.179 157.298 232.078C157.132 231.978 156.938 231.928 156.716 231.928C156.48 231.928 156.272 231.986 156.093 232.101C155.914 232.214 155.774 232.363 155.674 232.548C155.576 232.732 155.526 232.933 155.524 233.152V233.833C155.524 234.119 155.576 234.364 155.681 234.568C155.785 234.771 155.931 234.926 156.119 235.035C156.306 235.141 156.525 235.195 156.777 235.195C156.945 235.195 157.098 235.171 157.234 235.124C157.37 235.075 157.489 235.004 157.589 234.91C157.689 234.816 157.764 234.7 157.816 234.562L158.896 234.683C158.828 234.969 158.698 235.218 158.506 235.431C158.316 235.642 158.073 235.806 157.777 235.923C157.481 236.038 157.142 236.096 156.761 236.096Z" fill="white"/>
</svg>
