<svg width="145" height="227" viewBox="0 0 145 227" fill="none" xmlns="http://www.w3.org/2000/svg">
<path d="M1.5 192.5C1.5 194.5 4 197 6.5 197.5C49.8333 197 137 196 139 196C141 196 142.5 193.333 143 192C136 140.667 121.9 37.1 121.5 33.5C121.1 29.9 118.667 29 117.5 29H24C20.8 29 19.6667 32.3333 19.5 34C12.6667 86.3333 1.5 190.5 1.5 192.5Z" stroke="#553CDF" stroke-width="2"/>
<path d="M3 182L141 181.5" stroke="#553CDF" stroke-width="2"/>
<path d="M18 44H123" stroke="#553CDF" stroke-width="2"/>
<path d="M49 29V8L54 1H86.5L92 8V29" stroke="#553CDF" stroke-width="2"/>
<path d="M55 127H87" stroke="#553CDF"/>
<circle cx="59" cy="104" r="5" fill="#553CDF"/>
<circle cx="82" cy="104" r="5" fill="#553CDF"/>
<path d="M8.35831 210.636H10.6222L14.5582 220.247H14.7031L18.6392 210.636H20.9031V223H19.1282V214.053H19.0135L15.3672 222.982H13.8942L10.2479 214.047H10.1332V223H8.35831V210.636ZM26.1688 223.205C25.5812 223.205 25.0499 223.097 24.575 222.879C24.1001 222.658 23.7238 222.338 23.4461 221.919C23.1724 221.501 23.0356 220.988 23.0356 220.38C23.0356 219.857 23.1362 219.426 23.3374 219.088C23.5387 218.75 23.8103 218.482 24.1524 218.285C24.4945 218.088 24.8769 217.939 25.2994 217.838C25.722 217.738 26.1527 217.661 26.5914 217.609C27.1468 217.545 27.5975 217.492 27.9436 217.452C28.2897 217.408 28.5413 217.337 28.6982 217.241C28.8552 217.144 28.9337 216.987 28.9337 216.77V216.728C28.9337 216.2 28.7848 215.792 28.4869 215.502C28.1932 215.212 27.7545 215.067 27.1709 215.067C26.5632 215.067 26.0843 215.202 25.7341 215.472C25.388 215.738 25.1485 216.033 25.0157 216.359L23.3193 215.973C23.5206 215.41 23.8144 214.955 24.2007 214.609C24.5911 214.259 25.0399 214.005 25.547 213.848C26.0541 213.687 26.5873 213.607 27.1468 213.607C27.517 213.607 27.9094 213.651 28.324 213.739C28.7425 213.824 29.1329 213.981 29.4951 214.21C29.8614 214.44 30.1612 214.768 30.3946 215.194C30.628 215.617 30.7448 216.166 30.7448 216.842V223H28.982V221.732H28.9095C28.7928 221.966 28.6177 222.195 28.3843 222.42C28.1509 222.646 27.8511 222.833 27.4848 222.982C27.1186 223.131 26.6799 223.205 26.1688 223.205ZM26.5612 221.756C27.0602 221.756 27.4868 221.658 27.841 221.461C28.1992 221.263 28.4709 221.006 28.656 220.688C28.8451 220.366 28.9397 220.022 28.9397 219.656V218.46C28.8753 218.525 28.7506 218.585 28.5654 218.641C28.3843 218.694 28.1771 218.74 27.9436 218.78C27.7102 218.816 27.4828 218.851 27.2615 218.883C27.0401 218.911 26.855 218.935 26.7061 218.955C26.3559 219 26.036 219.074 25.7462 219.179C25.4604 219.283 25.231 219.434 25.058 219.631C24.8889 219.825 24.8044 220.082 24.8044 220.404C24.8044 220.851 24.9694 221.189 25.2994 221.418C25.6295 221.644 26.05 221.756 26.5612 221.756ZM33.149 223V213.727H34.8936V215.2H34.9902C35.1593 214.701 35.4571 214.309 35.8837 214.023C36.3143 213.733 36.8013 213.588 37.3446 213.588C37.4573 213.588 37.5901 213.592 37.7431 213.6C37.9 213.609 38.0228 213.619 38.1113 213.631V215.357C38.0389 215.337 37.9101 215.315 37.725 215.291C37.5398 215.263 37.3547 215.249 37.1696 215.249C36.743 215.249 36.3626 215.339 36.0286 215.52C35.6986 215.697 35.437 215.945 35.2438 216.263C35.0506 216.577 34.954 216.935 34.954 217.337V223H33.149ZM41.3335 219.855L41.3215 217.651H41.6354L45.33 213.727H47.4912L43.2774 218.195H42.9937L41.3335 219.855ZM39.6734 223V210.636H41.4784V223H39.6734ZM45.5292 223L42.2089 218.593L43.4525 217.331L47.7448 223H45.5292ZM52.7509 223.187C51.8373 223.187 51.0505 222.992 50.3904 222.602C49.7344 222.207 49.2273 221.654 48.8691 220.941C48.515 220.225 48.3379 219.386 48.3379 218.424C48.3379 217.474 48.515 216.637 48.8691 215.913C49.2273 215.188 49.7264 214.623 50.3663 214.216C51.0102 213.81 51.7628 213.607 52.6241 213.607C53.1473 213.607 53.6544 213.693 54.1454 213.866C54.6364 214.039 55.0771 214.311 55.4675 214.681C55.8579 215.051 56.1658 215.532 56.3912 216.124C56.6165 216.712 56.7292 217.426 56.7292 218.267V218.907H49.3581V217.555H54.9604C54.9604 217.08 54.8638 216.659 54.6706 216.293C54.4775 215.923 54.2058 215.631 53.8556 215.418C53.5095 215.204 53.103 215.098 52.6362 215.098C52.1291 215.098 51.6864 215.222 51.3081 215.472C50.9338 215.717 50.644 216.039 50.4387 216.438C50.2375 216.832 50.1369 217.261 50.1369 217.724V218.78C50.1369 219.4 50.2456 219.927 50.4629 220.362C50.6842 220.797 50.9921 221.129 51.3865 221.358C51.781 221.583 52.2418 221.696 52.769 221.696C53.1111 221.696 53.423 221.648 53.7047 221.551C53.9864 221.451 54.2299 221.302 54.4352 221.104C54.6404 220.907 54.7974 220.664 54.9061 220.374L56.6145 220.682C56.4777 221.185 56.2322 221.626 55.878 222.004C55.5279 222.378 55.0872 222.67 54.5559 222.879C54.0287 223.085 53.427 223.187 52.7509 223.187ZM63.0605 213.727V215.176H57.9955V213.727H63.0605ZM59.3538 211.506H61.1588V220.277C61.1588 220.627 61.2111 220.891 61.3158 221.068C61.4204 221.241 61.5552 221.36 61.7203 221.424C61.8893 221.485 62.0724 221.515 62.2696 221.515C62.4145 221.515 62.5413 221.505 62.6499 221.485C62.7586 221.465 62.8431 221.449 62.9035 221.436L63.2295 222.928C63.1249 222.968 62.9759 223.008 62.7828 223.048C62.5896 223.093 62.3481 223.117 62.0583 223.121C61.5834 223.129 61.1407 223.044 60.7302 222.867C60.3197 222.69 59.9877 222.416 59.7341 222.046C59.4806 221.676 59.3538 221.211 59.3538 220.652V211.506ZM69.5562 223V213.727H71.3612V223H69.5562ZM70.4678 212.297C70.1539 212.297 69.8842 212.192 69.6588 211.983C69.4375 211.769 69.3268 211.516 69.3268 211.222C69.3268 210.924 69.4375 210.671 69.6588 210.461C69.8842 210.248 70.1539 210.141 70.4678 210.141C70.7817 210.141 71.0493 210.248 71.2707 210.461C71.4961 210.671 71.6088 210.924 71.6088 211.222C71.6088 211.516 71.4961 211.769 71.2707 211.983C71.0493 212.192 70.7817 212.297 70.4678 212.297ZM80.7381 215.991L79.1021 216.281C79.0337 216.072 78.925 215.872 78.7761 215.683C78.6312 215.494 78.434 215.339 78.1845 215.218C77.935 215.098 77.623 215.037 77.2488 215.037C76.7376 215.037 76.311 215.152 75.9689 215.381C75.6268 215.607 75.4558 215.899 75.4558 216.257C75.4558 216.567 75.5705 216.816 75.7999 217.005C76.0293 217.194 76.3996 217.349 76.9107 217.47L78.3837 217.808C79.2369 218.005 79.8728 218.309 80.2914 218.72C80.7099 219.13 80.9192 219.664 80.9192 220.32C80.9192 220.875 80.7582 221.37 80.4363 221.805C80.1183 222.235 79.6736 222.573 79.1021 222.819C78.5346 223.064 77.8766 223.187 77.128 223.187C76.0897 223.187 75.2425 222.966 74.5865 222.523C73.9305 222.076 73.528 221.442 73.3791 220.621L75.1238 220.356C75.2324 220.811 75.4558 221.155 75.7939 221.388C76.1319 221.618 76.5726 221.732 77.1159 221.732C77.7076 221.732 78.1805 221.609 78.5346 221.364C78.8888 221.114 79.0659 220.811 79.0659 220.452C79.0659 220.163 78.9572 219.919 78.7399 219.722C78.5266 219.525 78.1986 219.376 77.7559 219.275L76.1863 218.931C75.321 218.734 74.681 218.42 74.2665 217.989C73.856 217.559 73.6507 217.013 73.6507 216.353C73.6507 215.806 73.8037 215.327 74.1096 214.917C74.4154 214.506 74.838 214.186 75.3773 213.957C75.9166 213.723 76.5344 213.607 77.2306 213.607C78.2328 213.607 79.0216 213.824 79.5971 214.259C80.1726 214.689 80.553 215.267 80.7381 215.991ZM91.3993 223.187C90.4857 223.187 89.6989 222.992 89.0389 222.602C88.3829 222.207 87.8758 221.654 87.5176 220.941C87.1634 220.225 86.9863 219.386 86.9863 218.424C86.9863 217.474 87.1634 216.637 87.5176 215.913C87.8758 215.188 88.3748 214.623 89.0147 214.216C89.6587 213.81 90.4113 213.607 91.2725 213.607C91.7958 213.607 92.3029 213.693 92.7939 213.866C93.2849 214.039 93.7256 214.311 94.1159 214.681C94.5063 215.051 94.8142 215.532 95.0396 216.124C95.265 216.712 95.3777 217.426 95.3777 218.267V218.907H88.0066V217.555H93.6088C93.6088 217.08 93.5123 216.659 93.3191 216.293C93.1259 215.923 92.8542 215.631 92.5041 215.418C92.158 215.204 91.7515 215.098 91.2846 215.098C90.7775 215.098 90.3348 215.222 89.9565 215.472C89.5822 215.717 89.2924 216.039 89.0872 216.438C88.8859 216.832 88.7853 217.261 88.7853 217.724V218.78C88.7853 219.4 88.894 219.927 89.1113 220.362C89.3327 220.797 89.6406 221.129 90.035 221.358C90.4294 221.583 90.8902 221.696 91.4174 221.696C91.7595 221.696 92.0714 221.648 92.3532 221.551C92.6349 221.451 92.8784 221.302 93.0836 221.104C93.2889 220.907 93.4458 220.664 93.5545 220.374L95.263 220.682C95.1261 221.185 94.8806 221.626 94.5265 222.004C94.1763 222.378 93.7356 222.67 93.2044 222.879C92.6771 223.085 92.0755 223.187 91.3993 223.187ZM97.3804 223V213.727H99.113V215.237H99.2277C99.4209 214.725 99.7368 214.327 100.176 214.041C100.614 213.751 101.139 213.607 101.751 213.607C102.371 213.607 102.89 213.751 103.309 214.041C103.731 214.331 104.043 214.729 104.244 215.237H104.341C104.562 214.741 104.915 214.347 105.397 214.053C105.88 213.755 106.456 213.607 107.124 213.607C107.965 213.607 108.651 213.87 109.183 214.397C109.718 214.925 109.986 215.719 109.986 216.782V223H108.18V216.951C108.18 216.323 108.009 215.868 107.667 215.587C107.325 215.305 106.917 215.164 106.442 215.164C105.854 215.164 105.397 215.345 105.071 215.707C104.745 216.066 104.582 216.526 104.582 217.09V223H102.783V216.836C102.783 216.333 102.627 215.929 102.313 215.623C101.999 215.317 101.59 215.164 101.087 215.164C100.745 215.164 100.429 215.255 100.139 215.436C99.8535 215.613 99.6221 215.86 99.445 216.178C99.272 216.496 99.1855 216.864 99.1855 217.283V223H97.3804ZM112.405 226.477V213.727H114.168V215.23H114.319C114.423 215.037 114.574 214.814 114.771 214.56C114.969 214.307 115.242 214.085 115.592 213.896C115.942 213.703 116.405 213.607 116.981 213.607C117.729 213.607 118.397 213.796 118.985 214.174C119.573 214.552 120.033 215.098 120.368 215.81C120.706 216.522 120.875 217.38 120.875 218.382C120.875 219.384 120.708 220.243 120.374 220.96C120.04 221.672 119.581 222.221 118.997 222.608C118.414 222.99 117.748 223.181 116.999 223.181C116.435 223.181 115.975 223.087 115.616 222.897C115.262 222.708 114.985 222.487 114.783 222.233C114.582 221.98 114.427 221.754 114.319 221.557H114.21V226.477H112.405ZM114.174 218.364C114.174 219.016 114.268 219.587 114.457 220.078C114.647 220.569 114.92 220.953 115.278 221.231C115.637 221.505 116.075 221.642 116.594 221.642C117.134 221.642 117.585 221.499 117.947 221.213C118.309 220.923 118.583 220.531 118.768 220.036C118.957 219.541 119.051 218.983 119.051 218.364C119.051 217.752 118.959 217.203 118.774 216.716C118.593 216.229 118.319 215.844 117.953 215.562C117.591 215.281 117.138 215.14 116.594 215.14C116.071 215.14 115.629 215.275 115.266 215.544C114.908 215.814 114.636 216.19 114.451 216.673C114.266 217.156 114.174 217.72 114.174 218.364ZM127.225 213.727V215.176H122.161V213.727H127.225ZM123.519 211.506H125.324V220.277C125.324 220.627 125.376 220.891 125.481 221.068C125.585 221.241 125.72 221.36 125.885 221.424C126.054 221.485 126.237 221.515 126.435 221.515C126.58 221.515 126.706 221.505 126.815 221.485C126.924 221.465 127.008 221.449 127.069 221.436L127.395 222.928C127.29 222.968 127.141 223.008 126.948 223.048C126.755 223.093 126.513 223.117 126.223 223.121C125.748 223.129 125.306 223.044 124.895 222.867C124.485 222.69 124.153 222.416 123.899 222.046C123.646 221.676 123.519 221.211 123.519 220.652V211.506ZM130.363 226.477C130.094 226.477 129.848 226.455 129.627 226.411C129.405 226.371 129.24 226.326 129.132 226.278L129.566 224.799C129.896 224.888 130.19 224.926 130.448 224.914C130.705 224.902 130.933 224.805 131.13 224.624C131.331 224.443 131.508 224.147 131.661 223.737L131.884 223.121L128.492 213.727H130.424L132.772 220.923H132.869L135.217 213.727H137.155L133.333 224.238C133.156 224.721 132.931 225.129 132.657 225.463C132.384 225.801 132.058 226.055 131.679 226.224C131.301 226.393 130.862 226.477 130.363 226.477Z" fill="#553CDF"/>
</svg>
