<svg width="135" height="130" viewBox="0 0 135 130" fill="none" xmlns="http://www.w3.org/2000/svg">
<path d="M67.5 40.625C72.1599 40.625 75.9375 36.9873 75.9375 32.5C75.9375 28.0127 72.1599 24.375 67.5 24.375C62.8401 24.375 59.0625 28.0127 59.0625 32.5C59.0625 36.9873 62.8401 40.625 67.5 40.625Z" stroke="black" stroke-miterlimit="10"/>
<path d="M67.5 105.625C72.1599 105.625 75.9375 101.987 75.9375 97.5C75.9375 93.0127 72.1599 89.375 67.5 89.375C62.8401 89.375 59.0625 93.0127 59.0625 97.5C59.0625 101.987 62.8401 105.625 67.5 105.625Z" stroke="black" stroke-miterlimit="10"/>
<path d="M67.718 0.000244141H67.282C48.7424 0.113344 33.75 14.6207 33.75 32.5002C33.75 50.4493 48.8605 65.0002 67.5 65.0002C86.1395 65.0002 101.25 79.5511 101.25 97.5002C101.25 115.379 86.2576 129.886 67.718 130C104.896 129.887 135 100.829 135 65.0002C135 29.1716 104.896 0.113344 67.718 0.000244141ZM67.5 40.6252C65.8312 40.6252 64.1999 40.1487 62.8124 39.2559C61.4248 38.3631 60.3434 37.0942 59.7048 35.6095C59.0662 34.1249 58.8991 32.4912 59.2246 30.9151C59.5502 29.339 60.3538 27.8913 61.5338 26.755C62.7138 25.6187 64.2172 24.8449 65.8539 24.5314C67.4906 24.2179 69.1871 24.3788 70.7289 24.9937C72.2706 25.6087 73.5884 26.6501 74.5155 27.9862C75.4426 29.3224 75.9375 30.8933 75.9375 32.5002C75.9373 34.655 75.0483 36.7215 73.466 38.2451C71.8837 39.7687 69.7376 40.6246 67.5 40.6246V40.6252Z" fill="#9F237E"/>
<path d="M67.5 65C48.8606 65 33.75 50.4491 33.75 32.5C33.75 14.6211 48.7424 0.11375 67.282 0C30.1037 0.1131 0 29.1713 0 65C0 100.829 30.105 129.886 67.282 130H67.718C86.2576 129.887 101.25 115.38 101.25 97.5C101.25 79.5509 86.1395 65 67.5 65ZM67.5 105.625C65.8312 105.625 64.1999 105.148 62.8124 104.256C61.4248 103.363 60.3434 102.094 59.7048 100.609C59.0662 99.1247 58.8991 97.491 59.2246 95.9149C59.5502 94.3388 60.3538 92.8911 61.5338 91.7547C62.7138 90.6184 64.2172 89.8446 65.8539 89.5311C67.4906 89.2176 69.1871 89.3785 70.7289 89.9935C72.2706 90.6084 73.5884 91.6498 74.5155 92.986C75.4426 94.3221 75.9375 95.893 75.9375 97.5C75.9375 99.6549 75.0486 101.722 73.4662 103.245C71.8839 104.769 69.7378 105.625 67.5 105.625Z" fill="#52509A"/>
</svg>
