<svg width="20" height="20" viewBox="0 0 20 20" fill="none" xmlns="http://www.w3.org/2000/svg">
<path d="M15.1436 6.11276C14.7781 5.87537 14.3081 5.87537 13.8903 6.11276L10.9661 8.07122L8.98172 9.31751L6.10966 11.276C5.74413 11.5134 5.27415 11.5134 4.8564 11.276L2.61097 9.73294C2.24543 9.49555 1.98433 9.02077 1.98433 8.48665V5.51929C1.98433 5.04451 2.19321 4.56973 2.61097 4.273L4.8564 2.78932C5.22193 2.55193 5.69191 2.55193 6.10966 2.78932L8.35509 4.33234C8.72063 4.56973 8.98172 5.04451 8.98172 5.57864V7.53709L10.9661 6.23145V4.21365C10.9661 3.73887 10.7572 3.2641 10.3394 2.96736L6.16188 0.178042C5.79634 -0.0593472 5.32637 -0.0593472 4.90862 0.178042L0.626632 3.02671C0.208877 3.26409 0 3.73887 0 4.21365V9.79229C0 10.2671 0.208877 10.7418 0.626632 11.0386L4.8564 13.8279C5.22193 14.0653 5.69191 14.0653 6.10966 13.8279L8.98172 11.9288L10.9661 10.6231L13.8381 8.72404C14.2037 8.48665 14.6736 8.48665 15.0914 8.72404L17.3368 10.2077C17.7023 10.4451 17.9634 10.9199 17.9634 11.454V14.4214C17.9634 14.8961 17.7546 15.3709 17.3368 15.6677L15.1436 17.1513C14.7781 17.3887 14.3081 17.3887 13.8903 17.1513L11.6449 15.6677C11.2794 15.4303 11.0183 14.9555 11.0183 14.4214V12.5223L9.03394 13.8279V15.7864C9.03394 16.2611 9.24282 16.7359 9.66057 17.0326L13.8903 19.822C14.2559 20.0593 14.7258 20.0593 15.1436 19.822L19.3734 17.0326C19.7389 16.7953 20 16.3205 20 15.7864V10.1484C20 9.67359 19.7911 9.19881 19.3734 8.90208L15.1436 6.11276Z" fill="#8247E5"/>
</svg>
